<svg width="129" height="50" viewBox="0 0 129 50" fill="none" xmlns="http://www.w3.org/2000/svg">
<path d="M58.6658 3.31763H64.7858C66.9134 3.31763 68.4653 3.81959 69.4415 4.82352C70.4177 5.80234 70.9058 7.32077 70.9058 9.37881V10.9976C70.9058 13.7333 70.0047 15.4651 68.2025 16.1929V16.2682C69.2037 16.5694 69.9046 17.1843 70.3051 18.1129C70.7306 19.0416 70.9433 20.2839 70.9433 21.84V26.4706C70.9433 27.2235 70.9684 27.8384 71.0184 28.3153C71.0685 28.767 71.1937 29.2188 71.3939 29.6706H67.1887C67.0386 29.2439 66.9384 28.8423 66.8884 28.4659C66.8383 28.0894 66.8133 27.4118 66.8133 26.4329V21.6141C66.8133 20.4094 66.613 19.5686 66.2125 19.0918C65.8371 18.6149 65.1738 18.3765 64.2226 18.3765H62.7958V29.6706H58.6658V3.31763ZM64.2977 14.6118C65.1237 14.6118 65.737 14.3984 66.1374 13.9718C66.563 13.5451 66.7757 12.8298 66.7757 11.8259V9.79293C66.7757 8.8392 66.6005 8.14901 66.2501 7.72234C65.9247 7.29567 65.399 7.08234 64.6731 7.08234H62.7958V14.6118H64.2977Z" fill="white"/>
<path d="M73.8089 3.31763H85.0727V7.08234H77.9389V14.047H83.6084V17.8118H77.9389V25.9059H85.0727V29.6706H73.8089V3.31763Z" fill="white"/>
<path d="M90.6401 3.31763H96.2345L100.515 29.6706H96.3846L95.6337 24.4376V24.5129H90.9405L90.1895 29.6706H86.3598L90.6401 3.31763ZM95.1456 20.9365L93.3059 7.91058H93.2308L91.4286 20.9365H95.1456Z" fill="white"/>
<path d="M108.265 30.047C106.287 30.047 104.773 29.4823 103.722 28.3529C102.695 27.2235 102.182 25.6298 102.182 23.5718V9.41646C102.182 7.35842 102.695 5.76469 103.722 4.63528C104.773 3.50587 106.287 2.94116 108.265 2.94116C110.242 2.94116 111.744 3.50587 112.77 4.63528C113.822 5.76469 114.347 7.35842 114.347 9.41646V12.2023H110.442V9.15293C110.442 7.52156 109.754 6.70587 108.377 6.70587C107.001 6.70587 106.312 7.52156 106.312 9.15293V23.8729C106.312 25.4792 107.001 26.2823 108.377 26.2823C109.754 26.2823 110.442 25.4792 110.442 23.8729V19.8447H114.347V23.5718C114.347 25.6298 113.822 27.2235 112.77 28.3529C111.744 29.4823 110.242 30.047 108.265 30.047Z" fill="white"/>
<path d="M120.047 7.08234H115.729V3.31763H128.495V7.08234H124.177V29.6706H120.047V7.08234Z" fill="white"/>
<path d="M58.6658 31.9059H61.9816L63.4599 42.5153H63.5022L64.9806 31.9059H68.2963V46.7294H66.0999V35.5059H66.0577L64.3681 46.7294H62.4251L60.7355 35.5059H60.6933V46.7294H58.6658V31.9059Z" fill="#00B1E9"/>
<path d="M78.1399 46.9412C76.9995 46.9412 76.1265 46.6165 75.5211 45.9671C74.9157 45.3177 74.6129 44.4 74.6129 43.2141V35.4212C74.6129 34.2353 74.9157 33.3177 75.5211 32.6682C76.1265 32.0188 76.9995 31.6941 78.1399 31.6941C79.2804 31.6941 80.1533 32.0188 80.7588 32.6682C81.3642 33.3177 81.6669 34.2353 81.6669 35.4212V43.2141C81.6669 44.4 81.3642 45.3177 80.7588 45.9671C80.1533 46.6165 79.2804 46.9412 78.1399 46.9412ZM78.1399 44.8235C78.9425 44.8235 79.3438 44.3365 79.3438 43.3624V35.2729C79.3438 34.2988 78.9425 33.8118 78.1399 33.8118C77.3374 33.8118 76.9361 34.2988 76.9361 35.2729V43.3624C76.9361 44.3365 77.3374 44.8235 78.1399 44.8235Z" fill="#00B1E9"/>
<path d="M87.3362 31.9059H89.6805L91.2011 43.4047H91.2434L92.764 31.9059H94.8971L92.6584 46.7294H89.5749L87.3362 31.9059Z" fill="#00B1E9"/>
<path d="M100.765 31.9059H103.088V46.7294H100.765V31.9059Z" fill="#00B1E9"/>
<path d="M109.58 31.9059H115.916V34.0235H111.903V37.9412H115.092V40.0588H111.903V44.6118H115.916V46.7294H109.58V31.9059Z" fill="#00B1E9"/>
<path d="M125.066 46.9412C123.939 46.9412 123.087 46.6235 122.51 45.9882C121.933 45.3388 121.644 44.4141 121.644 43.2141V42.3671H123.841V43.3835C123.841 44.3435 124.242 44.8235 125.044 44.8235C125.439 44.8235 125.734 44.7106 125.931 44.4847C126.143 44.2447 126.248 43.8635 126.248 43.3412C126.248 42.72 126.107 42.1765 125.826 41.7106C125.544 41.2306 125.023 40.6588 124.263 39.9953C123.306 39.1482 122.637 38.3859 122.257 37.7082C121.876 37.0165 121.686 36.24 121.686 35.3788C121.686 34.2071 121.982 33.3035 122.573 32.6682C123.165 32.0188 124.024 31.6941 125.15 31.6941C126.262 31.6941 127.1 32.0188 127.663 32.6682C128.241 33.3035 128.529 34.2212 128.529 35.4212V36.0353H126.333V35.2729C126.333 34.7647 126.234 34.3977 126.037 34.1718C125.84 33.9318 125.551 33.8118 125.171 33.8118C124.397 33.8118 124.01 34.2847 124.01 35.2306C124.01 35.7671 124.15 36.2682 124.432 36.7341C124.728 37.2 125.256 37.7647 126.016 38.4282C126.987 39.2753 127.656 40.0447 128.022 40.7365C128.388 41.4282 128.571 42.24 128.571 43.1718C128.571 44.3859 128.269 45.3177 127.663 45.9671C127.072 46.6165 126.206 46.9412 125.066 46.9412Z" fill="#00B1E9"/>
<path fill-rule="evenodd" clip-rule="evenodd" d="M1.3777 22.2222C0.108149 23.5021 0 24.5368 0 35.4167C0 46.2965 0.108149 47.3312 1.3777 48.6111C2.67549 49.9194 3.67364 50 18.5989 50C33.5242 50 34.5224 49.9194 35.8202 48.6111C37.0897 47.3312 37.1979 46.2965 37.1979 35.4167C37.1979 24.5368 37.0897 23.5021 35.8202 22.2222C34.5224 20.9139 33.5242 20.8333 18.5989 20.8333C3.67364 20.8333 2.67549 20.9139 1.3777 22.2222ZM45.9807 26.1132L41.331 29.2312V41.5993L46.2294 44.7937C48.9242 46.5514 51.6362 47.8903 52.2568 47.7694C53.2515 47.5764 53.3858 46.1056 53.3858 35.4069C53.3858 21.0326 53.4451 21.1069 45.9807 26.1132Z" fill="white"/>
<path d="M14.4658 10.4167C14.4658 13.8684 11.6902 16.6667 8.2662 16.6667C4.84223 16.6667 2.06655 13.8684 2.06655 10.4167C2.06655 6.96489 4.84223 4.16667 8.2662 4.16667C11.6902 4.16667 14.4658 6.96489 14.4658 10.4167Z" fill="white"/>
<path d="M37.1979 8.33333C37.1979 12.9357 33.497 16.6667 28.9317 16.6667C24.3664 16.6667 20.6655 12.9357 20.6655 8.33333C20.6655 3.73096 24.3664 0 28.9317 0C33.497 0 37.1979 3.73096 37.1979 8.33333Z" fill="white"/>
</svg>
