<svg width="15" height="16" viewBox="0 0 15 16" fill="none" xmlns="http://www.w3.org/2000/svg">
<g clip-path="url(#clip0_2503_172)">
<path d="M2.63442 14.85C2.56273 15.294 2.9653 15.641 3.32008 15.443L7.35501 13.187L11.389 15.443C11.7438 15.641 12.1464 15.294 12.0747 14.851L11.3118 10.121L14.5489 6.76501C14.8522 6.45101 14.696 5.87701 14.2897 5.81501L9.78791 5.11901L7.78056 0.792015C7.74232 0.704303 7.68199 0.630198 7.60658 0.578307C7.53117 0.526416 7.44377 0.498871 7.35455 0.498871C7.26532 0.498871 7.17793 0.526416 7.10252 0.578307C7.02711 0.630198 6.96678 0.704303 6.92854 0.792015L4.92118 5.12001L0.419345 5.81601C0.0140139 5.87801 -0.143155 6.45201 0.159235 6.76601L3.39729 10.122L2.63442 14.852V14.85ZM7.14269 12.083L3.75482 13.977L4.39269 10.02C4.40763 9.92893 4.40179 9.83524 4.37566 9.74719C4.34954 9.65913 4.30394 9.57941 4.24287 9.51501L1.57192 6.74501L5.29618 6.16901C5.3733 6.15634 5.44645 6.12352 5.50936 6.07337C5.57227 6.02321 5.62306 5.95721 5.6574 5.88101L7.35317 2.22301L9.05078 5.88101C9.08511 5.95721 9.13591 6.02321 9.19882 6.07337C9.26173 6.12352 9.33487 6.15634 9.41199 6.16901L13.1363 6.74401L10.4653 9.51401C10.4041 9.57851 10.3584 9.6584 10.3323 9.74665C10.3062 9.83489 10.3004 9.92877 10.3155 10.02L10.9534 13.977L7.56548 12.083C7.49997 12.0463 7.42733 12.0271 7.35363 12.0271C7.27992 12.0271 7.2082 12.0463 7.14269 12.083Z" fill="#FAFF00"/>
</g>
<defs>
<clipPath id="clip0_2503_172">
<rect width="14.7059" height="16" fill="white"/>
</clipPath>
</defs>
</svg>
